<?xml version="1.0" standalone="no"?>
<!DOCTYPE svg PUBLIC "-//W3C//DTD SVG 20010904//EN"
 "http://www.w3.org/TR/2001/REC-SVG-20010904/DTD/svg10.dtd">
<svg version="1.0" xmlns="http://www.w3.org/2000/svg"
 width="512.000000pt" height="512.000000pt" viewBox="0 0 512.000000 512.000000"
 preserveAspectRatio="xMidYMid meet">
<metadata>
Created by potrace 1.11, written by Peter Selinger 2001-2013
</metadata>
<g transform="translate(0.000000,512.000000) scale(0.100000,-0.100000)"
fill="#000000" stroke="none">
<path d="M451 4254 c-70 -19 -111 -44 -160 -100 -82 -93 -76 33 -76 -1604 l0
-1455 27 -57 c31 -66 90 -127 156 -159 l47 -24 2095 -3 c2335 -3 2147 -8 2246
67 35 26 59 56 84 105 l35 69 0 1466 0 1466 -28 57 c-34 68 -108 139 -175 165
-45 17 -133 18 -2122 20 -1794 2 -2082 0 -2129 -13z m2559 -503 c139 -38 233
-93 349 -205 141 -137 161 -166 161 -230 0 -71 -25 -114 -90 -153 -49 -30 -62
-33 -130 -33 -93 0 -161 29 -213 93 -141 171 -187 193 -372 184 -193 -9 -353
-68 -513 -186 -111 -82 -194 -170 -272 -287 -95 -144 -134 -239 -165 -409 -18
-99 -19 -156 -1 -265 17 -102 36 -161 83 -255 132 -268 473 -361 872 -239 176
54 341 151 441 262 86 95 111 151 123 273 5 55 7 103 4 106 -5 4 -176 -40
-257 -67 -14 -5 -59 -18 -100 -30 -41 -12 -86 -25 -100 -30 -14 -5 -65 -20
-115 -35 -49 -14 -133 -39 -186 -56 -153 -46 -260 -36 -329 32 -39 37 -50 65
-50 120 0 71 31 123 93 156 16 8 163 55 329 104 629 188 654 193 838 193 116
0 143 -3 190 -22 94 -37 166 -111 200 -207 17 -47 18 -325 1 -434 -5 -36 -15
-106 -21 -156 -6 -49 -15 -117 -20 -150 -5 -33 -14 -105 -20 -160 -15 -128
-23 -154 -63 -195 -47 -48 -101 -70 -178 -70 -114 0 -206 64 -225 158 -4 17
-10 32 -14 32 -3 0 -41 -20 -83 -43 -142 -81 -320 -143 -522 -183 -139 -27
-419 -25 -549 4 -282 64 -460 169 -601 356 -83 112 -164 314 -201 506 -12 61
-16 323 -6 360 6 19 16 60 22 90 101 467 573 938 1065 1062 127 32 188 37 375
33 136 -3 192 -8 250 -24z"/>
</g>
</svg>
