<?xml version="1.0" standalone="no"?>
<!DOCTYPE svg PUBLIC "-//W3C//DTD SVG 20010904//EN"
 "http://www.w3.org/TR/2001/REC-SVG-20010904/DTD/svg10.dtd">
<svg version="1.0" xmlns="http://www.w3.org/2000/svg"
 width="512.000000pt" height="512.000000pt" viewBox="0 0 512.000000 512.000000"
 preserveAspectRatio="xMidYMid meet">
<metadata>
Created by potrace 1.11, written by Peter Selinger 2001-2013
</metadata>
<g transform="translate(0.000000,512.000000) scale(0.100000,-0.100000)"
fill="#000000" stroke="none">
<path d="M770 4576 c-90 -24 -172 -95 -214 -185 l-21 -46 0 -1785 0 -1785 26
-56 c32 -68 82 -120 152 -157 l52 -27 1795 0 1795 0 63 34 c73 40 105 74 141
151 l26 55 0 1785 0 1785 -24 52 c-28 62 -103 136 -169 166 l-47 22 -1765 2
c-1373 1 -1775 -1 -1810 -11z m2114 -717 c214 -37 338 -83 440 -162 67 -51
235 -229 251 -266 38 -85 2 -179 -88 -231 -46 -26 -62 -30 -133 -30 -114 0
-156 23 -268 148 -48 54 -97 104 -109 111 -89 56 -327 52 -506 -9 -206 -69
-426 -238 -563 -430 -40 -57 -117 -198 -138 -255 -54 -142 -76 -306 -60 -443
39 -327 191 -536 440 -605 266 -74 622 -7 900 171 107 68 233 209 268 297 13
33 33 225 25 238 -6 9 -27 5 -123 -23 -82 -25 -350 -104 -455 -135 -44 -13
-143 -42 -220 -65 -116 -35 -150 -41 -201 -37 -90 7 -165 50 -202 116 -19 33
-18 121 1 158 19 35 69 80 106 95 20 8 682 204 871 258 70 20 167 38 268 50
179 21 335 -21 421 -115 34 -37 49 -62 81 -140 23 -55 19 -316 -9 -520 -5 -38
-15 -108 -21 -155 -6 -47 -15 -116 -20 -155 -5 -38 -11 -95 -15 -125 -17 -156
-47 -210 -140 -254 -139 -66 -319 2 -355 134 -6 22 -14 40 -18 40 -4 0 -68
-31 -142 -68 -223 -113 -387 -158 -696 -191 -169 -18 -440 24 -630 98 -212 83
-401 262 -499 475 -55 118 -115 315 -115 376 0 16 -5 32 -10 35 -13 8 -13 312
0 320 6 3 10 21 10 38 0 43 33 161 75 272 152 396 575 788 994 921 69 22 141
37 291 62 78 13 223 14 294 1z"/>
</g>
</svg>
